<?xml version="1.0" encoding="UTF-8"?>
<svg id="Layer_2" data-name="Layer 2" xmlns="http://www.w3.org/2000/svg" viewBox="0 0 583.08 124.83">
  <defs>
    <style>
      .cls-1 {
        fill: #fec502;
      }

      .cls-1, .cls-2 {
        stroke: #000;
        stroke-miterlimit: 10;
      }

      .cls-3 {
        fill: #fff;
      }
    </style>
  </defs>
  <g id="Layer_1-2" data-name="Layer 1">
    <g>
      <g>
        <path class="cls-2" d="M257.42,29.77c2.25-2.49,5-1.75,7.62-1.53.76.06,1.4.49,2.18-.24,3.51-3.32,8.02-3.45,12.28-2.83,4.83.7,6.66,4.85,8.05,9.03.14.41.15.86.23,1.39,5.81.9,9.11,4.12,9.38,10.09,2.66,2.37,2.63,5.63,3.51,8.76.88,3.16,1.2,6.1.58,9.05-2.63,12.51-4.17,25.21-6.51,37.78-1.13,6.06-1.28,12.34-2.96,18.35-.86,3.07-3.12,4.91-6.22,4.68-8.35-.61-16.7-.15-25.05-.25-8.71-.1-17.42-.04-26.14-.03-.97,0-1.94.17-2.91.26-3.39.32-5.94-1.35-6.8-4.59-1.43-5.42-2.59-10.86-2.72-16.52-.09-4.18-1.27-8.24-2.15-12.31-1.83-8.51-2.28-17.26-4.33-25.73-.55-2.27-.76-4.55-.67-6.87.02-.44-.14-1.04.09-1.31,2.33-2.68.8-5.61.46-8.36-.83-6.54,5.57-11.96,11.28-11.91,2.08.02,3.67-1.21,5.38-1.72,3.96-1.18,5.42-4.57,8.1-6.81,3.55-2.97,7.79-3.7,12.3-2.69,2.26.51,3.41,2.43,5.02,4.28Z"/>
        <path class="cls-1" d="M260.81,54.25c9.95.6,22.4-2.11,34.95-1.09.9.07,1.59-.16,1.74-1.19.12-.84.03-1.97-.8-2.03-3.57-.23-2.65-2.79-2.74-4.87-.18-3.93-2.62-6.38-6.48-6.11-2.6.18-2.83-1.23-3.08-3.22-.4-3.18-1.43-6.51-4.83-7.3-3.67-.86-7.7-1.04-10.69,2.15-1.26,1.35-2.27,1.56-3.92.71-1.68-.86-3.61-1.07-5.21.37-3.07,2.75-3.05,2.78-5.18-.71-1.83-3-3.78-3.79-7.47-3.05-3.88.78-6.63,3-7.02,5.93-.24,1.76-.96,2.49-2.78,2.35-2.4-.18-4.36.46-5.24,3.08-.46,1.38-1.56,1.44-2.84.86-3.19-1.45-5.91-.24-8.31,1.8-2.84,2.4-3.22,5.63-2.37,9,.41,1.6,1.66,2.42,3.5,2.12,2.92-.46,5.85-.3,8.78-.08,9.13.69,18.27,1.23,30.01,1.26Z"/>
        <path class="cls-1" d="M249.27,57.59c-.16,4.02.81,7.59.93,11.22.37,11.1.61,22.2,1.89,33.26.44,3.79-.03,7.68.48,11.45,1.25,9.17-.88,6.91,8.4,7.29,1.45.06,2.12-.48,2.25-1.91.27-3.18.82-6.36.87-9.55.16-11.29,2.1-22.48,1.94-33.78-.07-4.99.51-9.93,1.1-14.88.12-1,.4-2.12-.34-3.09h-17.52Z"/>
        <path class="cls-1" d="M270.17,57.55c-1.51,21.1-1.69,42.05-3.81,63.23,2.33,0,4.44-.07,6.55.02,1.42.06,2.12-.46,2.36-1.87.48-2.8,1.14-5.57,1.6-8.38,2.28-13.86,3.31-27.89,5.82-41.71.72-3.96.97-8.01,1.46-12.25-4.85.62-9.32.09-14,.96Z"/>
        <path class="cls-1" d="M232.26,56.7c.45,3.94.74,7.48,1.28,10.99,1.26,8.17,2.55,16.32,3.49,24.54.99,8.73,2.08,17.48,4.03,26.07.22.97.06,2.36,1.56,2.42,2.45.09,4.91.02,7.45.02-2.12-21.26-2.32-42.23-3.82-63.27-4.67-.7-9.18-.43-13.99-.78Z"/>
        <path class="cls-1" d="M238.13,120.62c-3.69-21.48-5.81-42.84-9.02-64.16-3.17-.46-6.26.02-9.35.11-1.02.03-1.62.61-1.6,1.72.02,1.07-.17,2.18.06,3.19,2.01,8.84,2.95,17.85,4.5,26.77.93,5.33,2.66,10.55,2.8,15.98.13,4.87,1.33,9.48,2.37,14.15.39,1.75,1.57,2.64,3.2,2.65,2.28.02,4.57-.25,7.04-.41Z"/>
        <path class="cls-1" d="M287.3,56.56c-3.2,21.38-5.35,42.78-8.99,64.1,2.15.11,4.01.11,5.85.32,2.57.29,3.87-.72,4.57-3.26,1.49-5.44,1.5-11.09,2.55-16.54,2.16-11.16,3.69-22.41,5.74-33.58.63-3.43,1.95-6.83,1.01-10.34-3.59-.29-6.99-1.64-10.73-.69Z"/>
        <path class="cls-2" d="M231.13,28.2c-1.81.03-2.69-.87-2.74-2.39-.05-1.58.95-2.41,2.49-2.45,1.46-.04,2.34.72,2.38,2.21.04,1.54-.74,2.47-2.14,2.63Z"/>
        <path class="cls-2" d="M272.76,6.57c-1.23-.06-2.25-.56-2.15-2,.11-1.53,1.2-2.33,2.66-2.41,1.3-.07,2.22.61,2.18,2.04-.04,1.64-1.17,2.21-2.69,2.37Z"/>
        <path class="cls-2" d="M250.79,4.64c-1.18-.27-2.63-.38-2.61-2.03.02-1.51,1.24-2.08,2.57-2.11,1.17-.03,2.1.55,2.13,1.85.02,1.32-.69,2.13-2.09,2.29Z"/>
        <path class="cls-2" d="M255.21,12.13c1.37.08,2.28.69,2.4,2.02.12,1.36-.64,2.2-2.01,2.18-1.3-.01-2.13-.77-2.21-2.11-.07-1.27.69-1.89,1.81-2.09Z"/>
        <path class="cls-2" d="M267.86,16.82c1.29.11,2.1.79,2.04,2.18-.05,1.1-.7,1.88-1.85,1.78-1.35-.13-2.34-.91-2.28-2.38.05-1.2.97-1.55,2.09-1.57Z"/>
        <path class="cls-2" d="M286.84,25.95c-1.12-.11-1.84-.71-1.89-1.83-.05-1.23.66-2.06,1.87-2.13,1.09-.06,1.85.59,1.88,1.76.04,1.26-.72,1.91-1.87,2.19Z"/>
        <path class="cls-2" d="M230.43,10.28c-.13,1.07-.62,1.89-1.78,1.94-1.2.05-1.77-.78-1.83-1.85-.07-1.13.55-1.88,1.73-1.91,1.17-.03,1.74.7,1.89,1.82Z"/>
        <path class="cls-2" d="M279.74,17.58c-.18,1.02-.74,1.63-1.82,1.5-.92-.12-1.46-.74-1.39-1.65.08-1.05.78-1.59,1.82-1.5.96.08,1.35.75,1.39,1.65Z"/>
        <path class="cls-2" d="M285.67,5.01c.98.16,1.55.64,1.51,1.58-.05,1.06-.7,1.6-1.72,1.53-.89-.06-1.46-.64-1.45-1.55.02-1.09.79-1.45,1.66-1.55Z"/>
        <path class="cls-2" d="M237.5,18.6c.93.04,1.5.52,1.5,1.47,0,.93-.55,1.52-1.45,1.59-.96.07-1.52-.53-1.53-1.45-.01-.9.57-1.44,1.48-1.61Z"/>
        <path class="cls-2" d="M237.04,43.38c-.48,1.54.9,3.84-1.68,4.16-1.58.2-2.64-.97-2.55-2.44.19-2.98,2.81-.93,4.23-1.72Z"/>
        <path class="cls-2" d="M274.08,41.97c-.24,1.05-.86,1.71-2.01,1.62-1.13-.09-2.16-.5-2.1-1.84.06-1.32,1.1-1.73,2.24-1.63,1.04.09,1.81.63,1.86,1.84Z"/>
        <path class="cls-2" d="M256.94,49.37c-1.16-.21-1.72-.96-1.64-2.05.08-1.11.8-1.76,1.94-1.7,1.18.06,1.73.79,1.59,1.94-.13,1.1-.81,1.7-1.9,1.81Z"/>
        <path class="cls-2" d="M279.86,36.9c-.22,1.12-.83,1.83-1.99,1.72-.91-.09-1.44-.76-1.37-1.65.09-1.05.62-1.9,1.83-1.84,1.08.05,1.47.82,1.53,1.77Z"/>
        <path class="cls-2" d="M287.88,112.76c0,.09,0,.18,0,.27-.08.66-.66,1.6-.96,1.35-1.53-1.27-3.4,1.38-4.71-.51-.56-.81-.41-1.7,0-2.54.41-.84,1.21-1.31,1.96-.79,1.2.83,3.91-.83,3.72,2.23Z"/>
      </g>
      <g>
        <path class="cls-3" d="M35.09,92.51h3.83c.42.77.63,1.64.63,2.6,0,.82-.17,1.39-.51,1.72-.34.33-1,.49-1.99.49h-14.59c-.4-.98-.6-1.91-.6-2.78,0-.73.16-1.25.49-1.56.33-.32.86-.47,1.58-.47h.88c.12-4.1.18-8.16.18-12.16,0-4.78-.44-7.99-1.32-9.62-.88-1.63-2.3-2.44-4.27-2.44-1.2,0-2.27.49-3.23,1.46-.96.97-1.44,3.01-1.44,6.1v7.07c0,2.95.06,6.15.18,9.6h2.53c.4.77.6,1.64.6,2.6,0,.82-.17,1.39-.51,1.72-.34.33-1,.49-1.99.49H.63c-.42-.98-.63-1.91-.63-2.78,0-.73.16-1.25.49-1.56.33-.32.86-.47,1.58-.47h2.57c.12-3.87.18-7.86.18-11.99,0-6.56-.31-10.44-.93-11.64-.62-1.2-1.71-1.79-3.25-1.79-.42-.94-.63-1.88-.63-2.81,0-.84.31-1.39.93-1.65.62-.26,4.49-.49,11.62-.7.12.98.12,2.33,0,4.04,2.55-1.59,4.95-2.72,7.19-3.39,2.24-.67,4.19-1,5.85-1,2.32,0,4.1.36,5.34,1.07,1.24.72,2.12,1.66,2.64,2.83,2.11-1.29,4.25-2.26,6.43-2.92,2.18-.66,4.07-.98,5.66-.98,3.07,0,5.41.73,7.01,2.18,1.6,1.45,2.41,4.38,2.41,8.79,0,11.53.21,17.75.63,18.65.42.9,1.34,1.34,2.74,1.32.35.84.53,1.72.53,2.64,0,.84-.28,1.42-.83,1.72-.55.3-1.6.46-3.15.46-3.8,0-6.2-.06-7.21-.18-1.01-.12-1.7-.5-2.07-1.14-.38-.64-.56-1.73-.56-3.25v-12.41c0-4.78-.44-7.99-1.32-9.62-.88-1.63-2.3-2.44-4.27-2.44-1.2,0-2.27.49-3.23,1.46-.96.97-1.44,3.01-1.44,6.1,0,8.32.06,13.88.18,16.66Z"/>
        <path class="cls-3" d="M64.81,93.92c-2.66-2.74-3.99-6.71-3.99-11.92,0-6.49,1.61-11.53,4.83-15.1,3.22-3.57,7.75-5.36,13.59-5.36,5.25,0,9.2,1.37,11.85,4.11,2.65,2.74,3.97,6.71,3.97,11.92,0,6.49-1.61,11.53-4.82,15.1-3.21,3.57-7.73,5.36-13.57,5.36-5.25,0-9.21-1.37-11.87-4.11ZM82.57,89.68c.93-1.51,1.39-4.45,1.39-8.81,0-4.76-.51-8.16-1.53-10.2s-2.63-3.06-4.83-3.06c-1.9,0-3.31.76-4.24,2.27-.93,1.51-1.39,4.45-1.39,8.81,0,4.76.51,8.16,1.53,10.2s2.63,3.06,4.83,3.06c1.9,0,3.31-.76,4.24-2.27Z"/>
        <path class="cls-3" d="M120.84,67.76c-.4-.82-.6-1.69-.6-2.6s.18-1.58.53-1.99c.35-.41.94-.62,1.76-.62h10.65c.42.8.63,1.64.63,2.53,0,1.03-.2,1.74-.6,2.11-.4.38-1.1.56-2.11.56h-.21c-.8,1.76-2.59,6.66-5.38,14.71-2.79,8.05-4.67,12.66-5.64,13.82-.97,1.16-2.67,1.74-5.08,1.74-3.8,0-5.84-.19-6.12-.56-.28-.37-1.54-4.21-3.76-11.51-2.23-7.3-3.63-11.78-4.2-13.43-.57-1.65-1.03-2.87-1.37-3.66-.34-.79-.74-1.28-1.21-1.48-.47-.2-1.27-.3-2.39-.3-.42-1.08-.63-2.06-.63-2.95s.43-1.45,1.28-1.76c.86-.3,3.54-.46,8.07-.46,1.73,0,2.96.14,3.67.42.71.28,1.23.79,1.55,1.53s.7,2.47,1.14,5.19c.44,2.72,1.42,6.91,2.94,12.59,1.51,5.67,2.43,8.51,2.74,8.51s1.37-3.21,3.15-9.63c1.78-6.42,2.81-10.67,3.09-12.76h-1.9Z"/>
        <path class="cls-3" d="M153.36,92.51c.4.77.6,1.64.6,2.6,0,.82-.17,1.39-.51,1.72-.34.33-1,.49-1.99.49h-16.88c-.4-.98-.6-1.91-.6-2.78,0-.73.16-1.25.49-1.56.33-.32.86-.47,1.58-.47h2.88c.12-3,.18-6.2.18-9.6,0-5.18-.04-8.62-.12-10.32-.08-1.7-.26-2.94-.54-3.73-.28-.79-.72-1.28-1.3-1.48-.59-.2-1.44-.3-2.57-.3-.4-.66-.6-1.42-.6-2.29,0-1.31.54-2.12,1.62-2.43,1.08-.3,3.27-.46,6.57-.46,2.48,0,4.18.09,5.08.28.9.19,1.42.56,1.55,1.11.13.55.19,1.32.19,2.3v17.3c.02,3.4.09,6.6.21,9.6h4.15ZM138.21,56.14c-.94-.81-1.41-1.95-1.41-3.43s.6-2.82,1.79-3.81c1.2-1,2.89-1.49,5.1-1.49s3.84.43,4.78,1.28c.94.86,1.41,1.97,1.41,3.36,0,1.52-.56,2.79-1.69,3.8-1.12,1.01-2.93,1.51-5.41,1.51-2.11,0-3.63-.4-4.57-1.21Z"/>
        <path class="cls-3" d="M183.46,64.86c2.2,2.21,3.3,5.71,3.3,10.49,0,2.37-.47,4.06-1.41,5.06-.94,1.01-2.99,1.51-6.15,1.51h-13.08c.07,3.07.76,5.48,2.07,7.22,1.31,1.75,3.62,2.62,6.93,2.62s6.56-.94,9.98-2.81c1.22,1.2,1.83,2.48,1.83,3.87,0,1.88-1.38,3.18-4.13,3.92-2.75.74-5.98,1.11-9.69,1.11-6.38,0-11-1.29-13.89-3.87-2.88-2.58-4.32-6.83-4.32-12.76s1.62-10.99,4.87-14.47c3.25-3.48,7.6-5.22,13.06-5.22,4.87,0,8.41,1.11,10.62,3.32ZM167.46,69.73c-.91,1.41-1.38,3.86-1.41,7.35h1.86c2.6,0,4.59-.08,5.96-.23,1.37-.15,2.17-.41,2.41-.77.23-.36.35-.97.35-1.81,0-2.11-.46-3.74-1.37-4.9s-2.19-1.74-3.83-1.74c-1.73,0-3.06.7-3.97,2.11Z"/>
      </g>
      <g>
        <path class="cls-3" d="M328.24,64.79c-.08-2.72-.26-4.58-.53-5.57-.27-1-.73-1.64-1.37-1.93-.65-.29-1.48-.44-2.51-.44-.4-.96-.6-1.92-.6-2.88s.36-1.61,1.09-1.88c.73-.27,3.09-.4,7.1-.4,2.48,0,4.18.1,5.08.3.9.2,1.42.57,1.56,1.11s.21,1.3.21,2.29l-.63,13.04c1.43-.7,3.05-1.28,4.87-1.74,1.82-.46,3.76-.69,5.82-.69,3.84,0,6.91,1.2,9.19,3.59s3.43,6.49,3.43,12.3c0,6.84-1.61,11.99-4.83,15.43-3.22,3.45-7.59,5.17-13.1,5.17-1.92,0-3.65-.16-5.19-.47-1.54-.32-2.72-.66-3.57-1.04l-1.51,1.12c-2.06,0-3.36-.16-3.9-.49-.54-.33-.81-1.01-.81-2.04,0-.96.05-3.15.16-6.56s.16-6.13.16-8.17c0-10.64-.04-17.32-.12-20.04ZM338.27,94.53c.61.59,1.41,1.04,2.39,1.37s2.02.49,3.09.49c1.97,0,3.47-.66,4.52-1.97,1.04-1.31,1.56-4.52,1.56-9.63-.02-4.66-.52-7.95-1.48-9.86-.96-1.91-2.41-2.87-4.36-2.87-1.24,0-2.29.28-3.15.83-.86.55-1.5,1.44-1.93,2.65-.43,1.22-.66,3.57-.69,7.07l.04,11.92Z"/>
        <path class="cls-3" d="M363.82,67.08c.62-.26,4.49-.49,11.62-.7.12.98.12,2.34,0,4.08,2.95-1.73,5.62-2.91,8.02-3.52s4.5-.91,6.33-.91c.84,0,1.41.1,1.69.3s.42.66.42,1.39c0,1.29-.19,2.63-.58,4.03s-.87,2.29-1.44,2.69c-.57.4-1.48.69-2.72.88-1.24.19-1.96.23-2.16.14-.2-.09-.86-.88-1.99-2.36-1.73,0-3.06.63-3.99,1.88-.93,1.25-1.39,4.48-1.39,9.69,0,4.76.06,8.86.18,12.3h5.52c.42.77.63,1.64.63,2.6,0,.82-.17,1.39-.51,1.72-.34.33-1,.49-1.99.49h-17.93c-.42-.98-.63-1.91-.63-2.78,0-.73.16-1.25.49-1.56.33-.32.86-.47,1.58-.47h2.57c.12-3.45.18-7.44.18-11.99,0-6.56-.31-10.44-.93-11.64-.62-1.2-1.71-1.79-3.25-1.79-.42-.94-.63-1.88-.63-2.81,0-.84.31-1.39.93-1.65Z"/>
        <path class="cls-3" d="M396.73,98.37c-2.66-2.74-3.99-6.71-3.99-11.92,0-6.49,1.61-11.53,4.83-15.1,3.22-3.57,7.75-5.36,13.59-5.36,5.25,0,9.2,1.37,11.85,4.11,2.65,2.74,3.97,6.71,3.97,11.92,0,6.49-1.61,11.53-4.82,15.1-3.21,3.57-7.73,5.36-13.57,5.36-5.25,0-9.21-1.37-11.87-4.11ZM414.48,94.13c.93-1.51,1.39-4.45,1.39-8.81,0-4.76-.51-8.16-1.53-10.2s-2.63-3.06-4.83-3.06c-1.9,0-3.31.76-4.24,2.27-.93,1.51-1.39,4.45-1.39,8.81,0,4.76.51,8.16,1.53,10.2s2.63,3.06,4.83,3.06c1.9,0,3.31-.76,4.24-2.27Z"/>
        <path class="cls-3" d="M483.65,72.21c-.63,1.76-2.24,6.67-4.83,14.73-2.59,8.06-4.39,12.67-5.41,13.82-1.02,1.15-2.53,1.72-4.52,1.72-3.47,0-5.34-.19-5.61-.56-.27-.38-1.26-4.73-2.97-13.06-1.71-8.33-2.72-12.5-3.04-12.5s-1.31,3.78-2.97,11.34c-1.66,7.56-3.01,11.91-4.03,13.06-1.02,1.15-2.42,1.72-4.2,1.72-4.55,0-6.96-.19-7.24-.56-.28-.38-1.2-4.15-2.74-11.34s-2.58-11.65-3.09-13.39c-.52-1.75-.96-3.02-1.34-3.83-.38-.81-.79-1.31-1.25-1.51s-1.25-.3-2.37-.3c-.42-.87-.63-1.79-.63-2.78,0-1.08.42-1.75,1.27-2s3.22-.39,7.14-.39c1.88,0,3.22.14,4.04.42.82.28,1.39.79,1.71,1.53s.69,2.47,1.12,5.19c.43,2.72,1.12,6.91,2.06,12.59.94,5.67,1.56,8.51,1.86,8.51s1.29-3.74,2.97-11.23c1.68-7.49,2.87-13.05,3.57-16.68,5.81-.21,9.13-.18,9.97.09.83.27,1.41.77,1.72,1.51s.69,2.41,1.11,5.01,1.22,6.8,2.41,12.6c1.18,5.8,1.93,8.7,2.25,8.7s1.21-3.22,2.69-9.65,2.32-10.68,2.53-12.74h-2.21c-.42-.82-.63-1.69-.63-2.6s.18-1.58.54-1.99c.36-.41.95-.62,1.78-.62h10.65c.4.8.6,1.64.6,2.53,0,1.03-.2,1.73-.6,2.11-.4.38-1.09.56-2.07.56h-.21Z"/>
        <path class="cls-3" d="M513.47,66.99c1.92.67,2.88,1.79,2.88,3.36,0,1.66-.67,3.35-2,5.06-5.06-2.23-8.94-3.34-11.64-3.34-1.43,0-2.49.27-3.18.81-.69.54-1.04,1.31-1.04,2.32s.46,1.97,1.39,2.74c.93.77,3.06,1.76,6.42,2.95,3.91,1.34,6.7,2.8,8.35,4.39s2.48,3.69,2.48,6.29c0,3.52-1.44,6.21-4.31,8.09-2.87,1.88-6.76,2.81-11.65,2.81-4.52,0-7.75-.31-9.67-.93-1.92-.62-2.9-1.9-2.92-3.85,0-1.45.57-2.88,1.72-4.29,4.66,1.99,8.8,2.99,12.41,2.99,1.48,0,2.62-.25,3.45-.74.82-.49,1.23-1.31,1.23-2.46,0-1.34-.72-2.4-2.16-3.2s-3.76-1.8-6.94-3.02c-3.42-1.31-5.87-2.72-7.33-4.24-1.46-1.51-2.2-3.45-2.2-5.82,0-3.33,1.46-5.98,4.38-7.96s6.97-2.97,12.15-2.97c3.54,0,6.27.33,8.19,1Z"/>
        <path class="cls-3" d="M548.31,69.31c2.2,2.21,3.3,5.71,3.3,10.49,0,2.37-.47,4.05-1.41,5.06s-2.99,1.51-6.15,1.51h-13.08c.07,3.07.76,5.48,2.07,7.22s3.62,2.62,6.93,2.62,6.56-.94,9.98-2.81c1.22,1.2,1.83,2.48,1.83,3.87,0,1.88-1.38,3.18-4.13,3.92s-5.98,1.11-9.69,1.11c-6.38,0-11-1.29-13.89-3.87s-4.32-6.83-4.32-12.76,1.62-10.99,4.87-14.47c3.25-3.48,7.6-5.22,13.06-5.22,4.88,0,8.41,1.11,10.62,3.32ZM532.32,74.18c-.91,1.41-1.38,3.86-1.41,7.35h1.86c2.6,0,4.59-.08,5.96-.23s2.17-.41,2.41-.77.35-.97.35-1.81c0-2.11-.46-3.74-1.37-4.9s-2.19-1.74-3.83-1.74c-1.73,0-3.06.7-3.97,2.11Z"/>
        <path class="cls-3" d="M555.01,67.08c.62-.26,4.49-.49,11.62-.7.12.98.12,2.34,0,4.08,2.95-1.73,5.62-2.91,8.02-3.52s4.5-.91,6.33-.91c.84,0,1.41.1,1.69.3s.42.66.42,1.39c0,1.29-.19,2.63-.58,4.03s-.87,2.29-1.44,2.69-1.48.69-2.72.88-1.96.23-2.16.14-.86-.88-1.99-2.36c-1.73,0-3.06.63-3.99,1.88s-1.39,4.48-1.39,9.69c0,4.76.06,8.86.18,12.3h5.52c.42.77.63,1.64.63,2.6,0,.82-.17,1.39-.51,1.72s-1,.49-1.99.49h-17.93c-.42-.98-.63-1.91-.63-2.78,0-.73.16-1.25.49-1.56s.86-.47,1.58-.47h2.57c.12-3.45.18-7.44.18-11.99,0-6.56-.31-10.44-.93-11.64s-1.71-1.79-3.25-1.79c-.42-.94-.63-1.88-.63-2.81,0-.84.31-1.39.93-1.65Z"/>
      </g>
    </g>
  </g>
</svg>